<?xml version="1.0" standalone="no"?>
<!DOCTYPE svg PUBLIC "-//W3C//DTD SVG 20010904//EN"
 "http://www.w3.org/TR/2001/REC-SVG-20010904/DTD/svg10.dtd">
<svg version="1.0" xmlns="http://www.w3.org/2000/svg"
 width="500.000000pt" height="500.000000pt" viewBox="0 0 500.000000 500.000000"
 preserveAspectRatio="xMidYMid meet">
<metadata>
Created by potrace 1.14, written by Peter Selinger 2001-2017
</metadata>
<g transform="translate(0.000000,500.000000) scale(0.100000,-0.100000)"
fill="#000000" stroke="none">
<path d="M556 4755 c-74 -39 -80 -60 -82 -295 -5 -457 -6 -1756 -2 -1770 2 -8
8 -30 12 -47 4 -18 14 -33 22 -33 8 0 14 -5 14 -11 0 -5 15 -16 32 -23 25 -10
98 -13 299 -11 147 1 271 5 277 9 7 4 12 -33 14 -116 6 -245 1 -1969 -6 -1976
-4 -4 -42 -8 -84 -9 -42 -1 -77 -2 -77 -3 0 -2 -34 -7 -85 -13 -25 -3 -92 -13
-150 -22 -58 -10 -114 -18 -125 -19 -116 -14 -192 -55 -217 -119 -8 -19 14
-32 72 -42 16 -3 40 -9 54 -15 15 -5 26 -7 26 -4 0 4 7 1 15 -6 8 -7 15 -10
15 -6 0 3 12 1 28 -5 15 -6 36 -13 47 -15 42 -10 50 -13 50 -14 0 -1 7 -3 15
-5 8 -2 71 -20 140 -40 130 -37 206 -44 330 -29 30 3 66 7 80 9 23 2 88 11
149 21 14 2 52 6 85 9 34 3 68 8 76 10 8 2 40 7 70 10 30 3 66 8 80 10 48 7
105 15 145 20 22 2 51 7 65 10 14 3 45 8 70 11 25 3 48 8 51 10 3 1 28 6 55 9
27 4 56 8 65 11 22 6 29 46 12 62 -7 7 -13 21 -13 31 0 21 -43 64 -68 68 -9 2
-37 5 -62 9 -53 6 -76 10 -150 24 -30 6 -71 13 -90 16 -19 3 -46 8 -60 10 -14
3 -38 7 -55 10 -16 2 -37 7 -45 10 -8 4 -40 9 -70 11 -30 3 -66 6 -80 7 -14 1
-30 -1 -35 -5 -6 -4 -17 -4 -25 1 -14 9 -14 78 -10 1777 1 192 5 275 13 280
15 9 247 10 247 0 0 -5 5 -5 12 -1 17 11 77 10 82 -1 3 -7 5 -7 5 0 1 6 49 9
128 8 111 -2 134 0 170 18 52 25 83 83 83 153 l0 48 45 -49 c24 -26 44 -53 45
-59 0 -12 33 -30 72 -38 15 -4 37 -16 48 -29 14 -14 34 -22 58 -23 20 -1 51
-4 67 -8 27 -7 36 -3 73 34 23 23 42 45 43 49 1 3 2 19 3 36 1 35 31 47 39 15
7 -27 33 -26 49 3 7 12 13 24 13 27 2 11 29 55 45 73 10 10 23 39 29 63 6 24
16 44 21 44 6 0 13 0 17 0 3 1 16 -39 29 -87 33 -131 60 -196 120 -285 48 -73
60 -106 42 -124 -4 -3 -4 -12 -1 -20 3 -8 0 -14 -6 -14 -6 0 -31 -18 -55 -40
-24 -22 -53 -40 -65 -40 -49 0 -113 -53 -150 -125 -21 -42 -43 -141 -61 -285
-6 -47 -13 -101 -16 -120 -13 -79 -9 -95 31 -131 41 -37 43 -46 14 -51 -12 -2
-27 -12 -33 -23 -6 -11 -14 -22 -18 -25 -8 -6 -123 -459 -132 -520 -3 -19 -11
-62 -17 -95 -5 -33 -12 -86 -15 -118 -2 -33 -6 -67 -7 -77 -2 -9 -39 -52 -83
-94 -75 -70 -82 -80 -93 -132 -6 -32 -11 -74 -11 -95 0 -36 2 -39 38 -48 84
-22 319 -37 347 -22 5 3 37 6 71 8 34 1 109 12 166 23 56 12 121 23 143 26 22
2 58 8 80 14 l40 11 -1 57 c-1 31 2 64 7 73 11 22 19 156 8 138 -6 -9 -9 -2
-9 21 0 57 -2 70 -17 180 -7 58 -16 123 -19 145 -6 53 -11 88 -23 160 -16 98
-22 138 -27 184 -2 25 -21 80 -40 124 -20 43 -34 87 -31 98 3 10 2 17 -3 14
-4 -3 -10 3 -12 13 -4 13 2 17 30 19 43 2 49 9 35 32 -11 18 -8 31 7 31 4 0
13 -28 19 -62 21 -110 86 -212 136 -216 31 -3 104 -2 118 1 14 2 15 -150 3
-268 -5 -38 -9 -84 -11 -100 -2 -17 -6 -53 -9 -80 -3 -28 -8 -75 -12 -105 -3
-30 -7 -71 -9 -90 -3 -19 -7 -86 -10 -149 -6 -126 5 -182 41 -210 19 -15 23
-29 26 -85 1 -37 5 -71 8 -76 3 -4 21 -14 40 -22 28 -12 81 -14 260 -12 291 3
299 5 295 72 -2 20 -4 57 -6 82 -1 29 4 57 16 79 14 29 17 50 12 115 -3 45 -8
92 -11 106 -9 41 -15 73 -21 106 -6 41 -53 240 -65 279 -5 17 -23 71 -40 121
-16 50 -32 109 -35 130 -12 83 -29 141 -58 198 -26 50 -28 60 -16 70 8 6 24
25 36 41 18 27 20 37 12 90 -5 33 -11 74 -14 90 -2 17 -7 48 -11 71 -7 50 12
74 59 75 98 2 135 22 165 89 9 19 16 37 17 40 0 3 11 28 24 55 41 91 83 229
88 290 4 52 1 68 -24 115 -25 50 -27 60 -17 90 7 19 9 40 5 45 -3 6 -6 19 -7
30 -3 43 -52 217 -64 225 -4 3 -10 14 -13 25 -5 16 3 25 33 44 22 14 41 32 43
40 4 21 -12 72 -29 92 -8 9 -11 18 -8 22 3 3 -19 30 -50 60 -64 61 -133 88
-208 80 -135 -14 -158 -15 -158 -2 0 18 -68 78 -96 85 -12 3 -39 4 -59 1 -58
-8 -71 -1 -69 40 1 19 6 38 11 42 4 4 46 16 93 25 47 10 101 25 120 33 80 35
166 77 176 87 6 6 25 22 43 36 18 13 39 37 47 52 8 16 19 26 24 23 8 -5 60 65
60 82 0 3 7 15 16 24 9 10 19 33 22 51 7 38 7 176 0 198 -17 56 -75 150 -92
150 -7 0 -22 17 -34 39 -61 108 -221 228 -367 276 -74 25 -81 26 -195 30 -257
9 -504 -123 -600 -320 -8 -16 -17 -32 -20 -35 -6 -6 -27 -43 -65 -112 -66
-124 -46 -274 53 -387 97 -112 154 -163 211 -188 62 -28 61 -27 181 -50 47 -9
88 -21 92 -26 8 -13 4 -54 -6 -64 -4 -5 -33 -8 -65 -8 -61 -1 -119 -27 -171
-78 -25 -24 -25 -24 -51 -5 -41 31 -136 25 -209 -12 -73 -37 -149 -136 -150
-196 0 -25 37 -67 52 -58 15 9 -10 -34 -54 -94 -22 -29 -43 -50 -47 -48 -5 3
-16 34 -26 68 -9 35 -37 116 -62 182 -36 94 -42 120 -32 127 8 5 14 30 16 66
4 130 -65 100 -85 -36 -9 -55 -27 -64 -36 -16 -6 30 -56 119 -76 135 -20 16
-24 92 -27 553 -3 458 -5 512 -20 545 -22 46 -59 79 -98 86 -16 3 -41 9 -55
11 -14 3 -50 8 -80 10 -30 2 -75 6 -100 9 -93 12 -147 17 -205 22 -33 2 -76 6
-95 8 -19 2 -73 7 -120 11 -46 4 -87 8 -91 11 -3 2 -42 6 -85 10 -43 3 -92 7
-109 9 -16 2 -57 6 -90 10 -33 3 -80 8 -105 11 -25 3 -61 7 -80 9 -19 2 -66 6
-105 10 -121 13 -137 12 -179 -10z m3268 -1807 c5 -33 2 -39 -29 -58 -46 -28
-90 -41 -103 -28 -13 13 -3 48 14 48 8 0 15 5 15 10 1 6 2 15 3 21 2 15 79 60
88 51 4 -4 10 -24 12 -44z"/>
</g>
</svg>
